<svg id="flamula" xmlns="http://www.w3.org/2000/svg" xmlns:xlink="http://www.w3.org/1999/xlink" width="500" height="500" viewBox="0 0 500 500">
    <!-- Base -->
    <path stroke-width="6" stroke="#695041" fill="none" d="M90 96l158-78 162 78"/>
    <path d="M254 24c0 2-2 4-4 4s-4-2-4-4V13c0-2 2-4 4-4s4 2 4 4v11z" fill="#91A4A4"/>
    <path d="M258 8c0 4-4 8-8 8s-8-4-8-8 4-8 8-8 8 4 8 8z" fill="#5E6E66"/>
    <path d="M421 96c0 6-4 10-9 10H88c-5 0-9-4-9-10 0-5 4-9 9-9h324c5 0 9 4 9 9z" fill="#695041"/>
    <!-- End Base -->

    <defs>
        <!-- Formato -->
        <clipPath id="formato">
            <path d="m398,335l0,-225l-297,0l0,225c0,82 66,148 148,148c81,0 148,-66 149,-148z"/>
        </clipPath>
        <!-- End Formato -->

    </defs>

    <!-- Borda -->
    <g id="borda1" fill="#000000"><path d="m411,338l0,-228l-322,0l0,228c0,89 72,161 161,161s161,-72 161,-161z"/></g>
    <!-- End Borda -->

    <!-- Formato -->
    <g id="fundo" fill="#ffffff">
        <rect x="131" y="83" width="41" height="27"/>
        <rect x="230" y="83" width="41" height="27"/>
        <rect x="328" y="83" width="41" height="27"/>
        <path d="m398,335l0,-225l-297,0l0,225c0,82 66,148 148,148c81,0 148,-66 149,-148z"/>
    </g>
    <!-- End Formato -->

    <!-- Estampa -->
    <g id="estampa1" fill="#4d004d" x="0" clip-path="url(#formato)"><defs><pattern id="Pattern" x="0" y="0" width="200" height="200" patternUnits="userSpaceOnUse"><rect x="100" y="0" width="100" height="100"/><rect x="0" y="100" width="100" height="100"/></pattern></defs><rect fill="url(#Pattern)" x="0" y="0" width="500" height="500" clip-path="url(#corte-formato)" /></g>
    <!-- End Estampa -->

    <!-- Adorno -->
    <g >
      <g id="adorno" transform="scale(3) translate(47, 47)">
    <polygon id="svg_21" points="35.4370002746582,0 43.801998138427734,25.749004364013672 70.86900329589844,25.749004364013672 48.97099685668945,41.65800094604492 57.33500289916992,67.40700149536133 35.4370002746582,51.49399948120117 13.527999877929688,67.40700149536133 21.901996612548828,41.65800094604492 0,25.749004364013672 27.067996978759766,25.749004364013672 " fill="#FFFFFF"/>
    <path id="svg_22" d="m43.802,25.749l-3.622,-11.148c-0.94199,0.801 -1.87299,1.552 -2.309,2.055c-2.435,2.824 -5.513,6.135 -6.127,9.941c-0.848,5.259 3.956,8.48199 3.826,13.3c-0.124,4.695 -5.036,3.975 -7.896,5.913c-2.418,1.637 -4.316,6.006 -5.788,8.596c-2.026,3.561 -4.384,6.887 -6.504,10.391c-0.389,0.646 -1.052,1.492 -1.787,2.42l-0.067,0.191l21.909,-15.914l21.898,15.914l-8.36401,-25.75l21.89801,-15.909h-27.06701l0,0z" fill="#C5D1D0"/>
</g>
    </g>
    <!-- End Adorno -->
</svg>
